<svg xmlns="http://www.w3.org/2000/svg" width="1601" height="210" fill="none" viewBox="0 0 1601 210"><path fill-rule="evenodd" stroke="#000" stroke-width="3" d="M1360.32 111.492L1371.14 39.0177H1373.75L1384.41 111.486L1360.32 111.492Z" clip-rule="evenodd"/><path fill-rule="evenodd" stroke="#000" stroke-width="3" d="M1343.47 2.53525L1309.44 205.911H1347.08L1354.73 150.219H1388.78L1398 205.911H1436.34L1399.79 2.53525H1343.47Z" clip-rule="evenodd"/><path fill-rule="evenodd" stroke="#000" stroke-width="3" d="M1298.18 70.8574V44.3726C1298.18 12.5175 1287.2 2.53525 1258.5 2.53525H1191.3V206.074H1228.61V124.736L1243.7 124.746C1253.98 124.746 1258.59 131.522 1258.59 140.521V206.074H1302.74C1302.74 206.074 1298.17 201.469 1298.17 191.258C1298.17 181.045 1298.17 139.17 1298.17 139.17C1298.17 106.415 1276.68 106.347 1274.57 106.347C1285.62 106.347 1298.18 97.9372 1298.18 70.8574Z" clip-rule="evenodd"/><path fill-rule="evenodd" stroke="#000" stroke-width="3" d="M1258.46 80.3403C1258.46 89.3299 1253.36 93.3067 1247.19 93.3067H1228.72L1228.73 35.0994H1246.93C1255.15 35.0994 1258.47 40.0042 1258.47 47.4555L1258.46 80.3403Z" clip-rule="evenodd"/><path fill-rule="evenodd" stroke="#000" stroke-width="3" d="M1447.18 2.53525L1447.24 205.917H1487.44L1487.37 2.53525H1447.18Z" clip-rule="evenodd"/><path fill-rule="evenodd" stroke="#000" stroke-width="3" d="M1100.67 133.008H1099.02L1062.57 2.53525H1017.62V205.914H1052.38V77.1433H1054.05L1091.42 205.914H1136.06V2.53525H1100.68L1100.67 133.008Z" clip-rule="evenodd"/><path fill-rule="evenodd" stroke="#000" stroke-width="3" d="M943.834 83.1919L922.032 2.53525H878.459L922.041 125.825L922.032 205.914H965.62L965.629 125.834L1009.22 2.53525H965.629L943.834 83.1919Z" clip-rule="evenodd"/><path fill-rule="evenodd" stroke="#000" stroke-width="3" d="M856.201 2.53525H814.206L814.197 205.914H904.731V167.788H856.201V2.53525Z" clip-rule="evenodd"/><path fill-rule="evenodd" stroke="#000" stroke-width="3" d="M802.272 2.53525H758.083L725.235 85.7537L725.071 85.7568C725.071 86.4813 725.071 2.53525 725.071 2.53525H684.739V205.914H725.081L725.087 108.107H725.297L761.653 205.914H807.032L763.798 96.4852L802.272 2.53525Z" clip-rule="evenodd"/><path fill-rule="evenodd" stroke="#000" stroke-width="3" d="M1.34125 97.2158H49.7544V118.336H1.332L1.34125 137.839H106.818V118.327L69.275 118.336V97.2158H106.818V77.7044H1.34125V97.2158Z" clip-rule="evenodd"/><path fill-rule="evenodd" stroke="#000" stroke-width="3" d="M1.332 205.902H20.8526V172.539H49.7482L49.7544 201.564H69.2657V172.539H87.3004V205.902H106.818V153.012H1.332V205.902Z" clip-rule="evenodd"/><path fill-rule="evenodd" stroke="#000" stroke-width="3" d="M119.313 38.7341H1.34125V62.3765H119.313L119.303 205.902H143.714V2.53525H119.313V38.7341Z" clip-rule="evenodd"/><path fill-rule="evenodd" stroke="#000" stroke-width="3" d="M252.514 70.9345C252.514 75.9441 247.898 78.9222 240.657 78.9222H224.993L225.002 35.1241H240.771C250.019 35.1241 252.523 38.657 252.523 43.8578L252.514 70.9345Z" clip-rule="evenodd"/><path fill-rule="evenodd" stroke="#000" stroke-width="3" d="M224.993 112.106H240.083C244.239 112.106 257.643 112.103 257.643 127.517C257.643 127.517 257.643 144.319 257.643 160.621C257.643 173.991 241.301 174.096 239.569 174.096C227.706 174.096 224.715 174.096 224.715 174.096L224.993 112.106Z" clip-rule="evenodd"/><path fill-rule="evenodd" stroke="#000" stroke-width="3" d="M248.863 206.074C278.147 206.074 294.564 196.459 294.564 171.411V131.627C294.564 97.3298 272.62 93.7445 270.508 93.7445C281.203 93.7445 293.176 85.1033 292.791 60.237V44.3726C292.791 12.5175 279.689 2.53525 245.281 2.53525H187.684V206.074H248.863Z" clip-rule="evenodd"/><path fill-rule="evenodd" stroke="#000" stroke-width="3" d="M416.484 70.8574V44.3726C416.484 12.5175 405.509 2.53525 376.802 2.53525H309.602V206.074H346.91V124.736L362.001 124.746C372.285 124.746 376.897 131.522 376.897 140.521V206.074H421.044C421.044 206.074 416.475 201.469 416.475 191.258C416.475 181.045 416.475 139.17 416.475 139.17C416.475 106.415 394.981 106.347 392.87 106.347C403.922 106.347 416.484 97.9372 416.484 70.8574Z" clip-rule="evenodd"/><path fill-rule="evenodd" stroke="#000" stroke-width="3" d="M376.765 80.3403C376.765 89.3299 371.663 93.3067 365.497 93.3067H347.021L347.031 35.0994H365.235C373.454 35.0994 376.771 40.0042 376.771 47.4555L376.765 80.3403Z" clip-rule="evenodd"/><path fill-rule="evenodd" stroke="#000" stroke-width="3" d="M627.567 160.843C627.567 166.583 623.414 172.977 616.29 172.977L607.014 172.986C599.445 172.977 596.628 167.292 596.634 160.837V48.5437C596.628 42.4983 599.809 36.3911 607.014 36.3911H616.29C625.409 36.3911 627.573 43.5773 627.567 48.5499V160.843Z" clip-rule="evenodd"/><path fill-rule="evenodd" stroke="#000" stroke-width="3" d="M626.408 1H597.799C568.453 1 556.492 13.6613 556.492 44.5545V164.508C556.492 195.571 568.453 208.371 598.681 208.371L625.514 208.38C656.826 208.38 667.709 195.571 667.709 164.508V44.5484C667.709 13.4054 656.571 1 626.852 1H626.408Z" clip-rule="evenodd"/><path fill-rule="evenodd" stroke="#000" stroke-width="3" d="M1551.31 2.53525H1509.32L1509.31 205.917H1599.84V167.788H1551.3L1551.31 2.53525Z" clip-rule="evenodd"/><path fill-rule="evenodd" stroke="#000" stroke-width="3" d="M502.197 160.843C502.197 166.583 498.044 172.977 490.92 172.977L481.646 172.986C474.075 172.977 471.257 167.292 471.263 160.837V48.5437C471.257 42.4983 474.439 36.3911 481.646 36.3911H490.92C500.042 36.3911 502.206 43.5773 502.197 48.5499V160.843Z" clip-rule="evenodd"/><path fill-rule="evenodd" stroke="#000" stroke-width="3" d="M501.041 1H472.432C443.083 1 431.122 13.6613 431.122 44.5545V164.508C431.122 195.571 443.083 208.371 473.31 208.371L500.144 208.38C531.459 208.38 542.342 195.571 542.342 164.508V44.5484C542.342 13.4054 531.2 1 501.485 1H501.041Z" clip-rule="evenodd"/></svg>