<?xml version="1.0" encoding="UTF-8"?>
<svg width="1600px" height="209px" viewBox="0 0 1600 209" version="1.1" xmlns="http://www.w3.org/2000/svg" xmlns:xlink="http://www.w3.org/1999/xlink">
    <!-- Generator: Sketch 53.2 (72643) - https://sketchapp.com -->
    <title>br-logo-2019</title>
    <desc>Created with Sketch.</desc>
    <g id="br-logo-2019" stroke="none" stroke-width="1" fill="none" fill-rule="evenodd">
        <g id="Group" transform="translate(0.000000, 1.000000)" fill="#E52207">
            <polyline id="L" points="1551.76076 0 1510.00919 0 1510 205 1600 205 1600 166.571045 1551.75157 166.571045 1551.76076 0"></polyline>
            <polyline id="I" points="1448 0 1448.05651 205 1489 205 1488.93407 0 1448 0"></polyline>
            <path d="M1344.05857,0 L1310,205 L1347.67762,205 L1355.33224,148.861242 L1389.40315,148.861242 L1398.63436,205 L1437,205 L1400.42691,0 L1344.05857,0 Z M1360.92279,109.828864 L1371.75527,36.7732792 L1374.36851,36.7732792 L1385.03746,109.819542 L1360.92279,109.828864 L1360.92279,109.828864 Z" id="A"></path>
            <path d="M1259.8954,78.3622622 C1259.8954,87.4193475 1254.81645,91.4216043 1248.67503,91.4216043 L1230.27227,91.4216043 L1230.28148,32.8004968 L1248.41402,32.8004968 C1256.60053,32.8004968 1259.90461,37.7404429 1259.90461,45.2450624 L1259.8954,78.3622622 Z M1299.46149,68.8114928 L1299.46149,42.1370259 C1299.46149,10.0537683 1288.52977,0 1259.93532,0 L1193,0 L1193,205 L1230.15865,205 L1230.15865,123.079486 L1245.19285,123.088801 C1255.43366,123.088801 1260.03051,129.913441 1260.03051,138.973631 L1260.03051,205 L1304,205 C1304,205 1299.45228,200.358127 1299.45228,190.074594 C1299.45228,179.787956 1299.45228,137.613671 1299.45228,137.613671 C1299.45228,104.623773 1278.04022,104.555465 1275.93986,104.555465 C1286.94835,104.555465 1299.46149,96.0852114 1299.46149,68.8114928 L1299.46149,68.8114928 Z" id="R"></path>
            <polyline id="N" points="1100.63851 131.512483 1099.87467 131.512483 1063.9095 0 1019 0 1019 205 1053.72701 205 1053.72701 75.2028164 1054.50933 75.2028164 1091.39542 205 1136 205 1136 0 1100.64775 0 1100.63851 131.512483"></polyline>
            <polyline id="Y" points="945.496959 81.3026936 923.988849 0 881 0 923.994931 124.275288 923.988849 205 966.989862 205 966.998986 124.281502 1010 0 966.998986 0 945.496959 81.3026936"></polyline>
            <polyline id="L" points="856.756053 0 815.009194 0 815 205 905 205 905 166.57357 856.756053 166.57357 856.756053 0"></polyline>
            <path d="M804.215685,0 L759.770854,0 L726.733343,83.8849646 L726.569009,83.8849646 C726.569009,84.6152097 726.569009,0 726.569009,0 L686,0 L686,205 L726.57521,205 L726.584512,106.413803 L726.795357,106.413803 L763.361416,205 L809,205 L765.519474,94.6988071 L804.215685,0" id="K"></path>
            <path d="M625.780747,0 L597.228484,0 C567.9378,0 556,12.6409395 556,43.4770774 L556,163.209053 C556,194.211357 567.9378,206.990769 598.105358,206.990769 L624.888489,207 C656.139064,207 667,194.211357 667,163.209053 L667,43.467846 C667,12.3824587 655.883693,0 626.223799,0 M626.937606,159.55032 C626.937606,165.276899 622.79322,171.661989 615.679768,171.661989 L606.424897,171.668143 C598.868393,171.661989 596.056241,165.987721 596.065471,159.541088 L596.065471,47.4558347 C596.056241,41.4246172 599.231449,35.3287795 606.424897,35.3287795 L615.679768,35.3287795 C624.783879,35.3287795 626.943759,42.5016203 626.937606,47.4650662 L626.937606,159.55032" id="O"></path>
            <path d="M498.782681,0 L470.22655,0 C440.938131,0 429,12.6409395 429,43.4770774 L429,163.209053 C429,194.211357 440.938131,206.990769 471.103448,206.990769 L497.887321,207 C529.138763,207 540,194.211357 540,163.209053 L540,43.467846 C540,12.3824587 528.883385,0 499.225746,0 M499.936495,159.55032 C499.936495,165.276899 495.791995,171.661989 488.681423,171.661989 L479.426294,171.668143 C471.869581,171.661989 469.054274,165.987721 469.063505,159.541088 L469.063505,47.4558347 C469.054274,41.4246172 472.232648,35.3287795 479.426294,35.3287795 L488.681423,35.3287795 C497.782709,35.3287795 499.945726,42.5016203 499.936495,47.4650662 L499.936495,159.55032" id="O"></path>
            <path d="M375.896622,78.3622622 C375.896622,87.4193475 370.814739,91.4216043 364.67349,91.4216043 L346.271238,91.4216043 L346.28045,32.8004968 L364.409417,32.8004968 C372.598772,32.8004968 375.902764,37.7404429 375.902764,45.2450624 L375.896622,78.3622622 Z M415.458547,68.8114928 L415.458547,42.1370259 C415.458547,10.0537683 404.527124,0 375.93347,0 L309,0 L309,205 L346.160696,205 L346.160696,123.079486 L361.191402,123.088801 C371.431934,123.088801 376.028659,129.913441 376.028659,138.973631 L376.028659,205 L420,205 C420,205 415.449335,200.358127 415.449335,190.074594 C415.449335,179.787956 415.449335,137.613671 415.449335,137.613671 C415.449335,104.623773 394.040942,104.555465 391.937564,104.555465 C402.945752,104.555465 415.458547,96.0852114 415.458547,68.8114928 L415.458547,68.8114928 Z" id="R"></path>
            <path d="M247.82243,205 C277.41433,205 294,195.312614 294,170.085045 L294,130.019008 C294,95.4766449 271.825545,91.8656095 269.694704,91.8656095 C280.498442,91.8656095 292.601246,83.1593814 292.211838,58.1150036 L292.211838,42.1370259 C292.211838,10.0537683 278.971963,0 244.202492,0 L186,0 L186,205 L247.82243,205 Z M223.700935,110.358582 L238.950156,110.358582 C243.149533,110.358582 256.694704,110.355477 256.694704,125.880134 C256.694704,125.880134 256.694704,142.798906 256.694704,159.217784 C256.694704,172.686977 240.180685,172.78944 238.429907,172.78944 C226.442368,172.78944 223.420561,172.78944 223.420561,172.78944 L223.700935,110.358582 Z M251.510903,68.8891161 C251.510903,73.9346298 246.847352,76.9339937 239.529595,76.9339937 L223.700935,76.9339937 L223.707165,32.8253362 L239.64486,32.8253362 C248.990654,32.8253362 251.520249,36.3804829 251.520249,41.6216073 L251.510903,68.8891161 L251.510903,68.8891161 Z" id="B"></path>
            <polyline id="E" points="0 205 19.4276237 205 19.4276237 171.569563 48.190081 171.569563 48.1992869 200.653611 67.6207733 200.653611 67.6207733 171.569563 85.5723763 171.569563 85.5723763 205 105 205 105 152 0 152 0 205"></polyline>
            <polyline id="H" points="0.00920595026 97.1178159 48.1992869 97.1178159 48.1992869 118.89172 0 118.89172 0.00920595026 139 105 139 105 118.882184 67.6269106 118.89172 67.6269106 97.1178159 105 97.1178159 105 77 0.00920595026 77 0.00920595026 97.1178159"></polyline>
            <polyline id="T" points="118.491642 36.4890553 0 36.4890553 0 60.320989 118.491642 60.320989 118.482352 205 143 205 143 0 118.491642 0 118.491642 36.4890553"></polyline>
        </g>
    </g>
</svg>