<svg xmlns="http://www.w3.org/2000/svg" xmlns:xlink="http://www.w3.org/1999/xlink" width="1602" height="211" version="1.1" viewBox="0 0 1602 211"><title>brooklynrail-logo-outline-red</title><g id="brooklynrail-logo" stroke="#000" stroke-width="2.5" transform="translate(1.000000, 1.000000)"><path id="Stroke-1" d="M1359.31774,111.423486 L1370.14163,38.9487264 L1372.75281,38.9487264 L1383.41331,111.41732 L1359.31774,111.423486 Z M1342.46687,2.46626012 L1308.43528,205.841983 L1346.08306,205.841983 L1353.73161,150.150268 L1387.77555,150.150268 L1396.99635,205.841983 L1435.33778,205.841983 L1398.79057,2.46626012 L1342.46687,2.46626012 Z M1297.17978,70.7884181 L1297.17978,44.3036397 C1297.17978,12.4485337 1286.20483,2.46626012 1257.49732,2.46626012 L1190.29732,2.46626012 L1190.29732,206.005374 L1227.60599,206.005374 L1227.60599,124.667416 L1242.69655,124.676665 C1252.98094,124.676665 1257.59289,131.452773 1257.59289,140.451617 L1257.59289,206.005374 L1301.73932,206.005374 C1301.73932,206.005374 1297.17054,201.399593 1297.17054,191.189189 C1297.17054,180.975701 1297.17054,139.101328 1297.17054,139.101328 C1297.17054,106.346029 1275.67689,106.278206 1273.56514,106.278206 C1284.61716,106.278206 1297.17978,97.8681869 1297.17978,70.7884181 Z M1257.46032,80.2712697 C1257.46032,89.2608651 1252.3582,93.2377437 1246.1925,93.2377437 L1227.71697,93.2377437 L1227.72622,35.030422 L1245.93046,35.030422 C1254.14934,35.030422 1257.46649,39.9352389 1257.46649,47.3864913 L1257.46032,80.2712697 Z M1446.18017,2.46626012 L1446.23874,205.848148 L1486.43913,205.848148 L1486.37439,2.46626012 L1446.18017,2.46626012 Z M1099.66765,132.938707 L1098.01524,132.938707 L1061.57285,2.46626012 L1016.62179,2.46626012 L1016.62179,205.845066 L1051.38402,205.845066 L1051.38402,77.0743526 L1053.05185,77.0743526 L1090.41601,205.845066 L1135.06495,205.845066 L1135.06495,2.46626012 L1099.67689,2.46626012 L1099.66765,132.938707 Z M942.833734,83.1229075 L921.031807,2.46626012 L877.458782,2.46626012 L921.041056,125.755663 L921.031807,205.845066 L964.620247,205.845066 L964.629495,125.764911 L1008.22102,2.46626012 L964.629495,2.46626012 L942.833734,83.1229075 Z M855.200593,2.46626012 L813.205988,2.46626012 L813.19674,205.845066 L903.730844,205.845066 L903.730844,167.719439 L855.200593,167.719439 L855.200593,2.46626012 Z M801.27227,2.46626012 L757.082674,2.46626012 L724.23489,85.6847572 L724.071499,85.6878401 C724.071499,86.4123102 724.071499,2.46626012 724.071499,2.46626012 L683.738551,2.46626012 L683.738551,205.845066 L724.080748,205.845066 L724.086913,108.038514 L724.296547,108.038514 L760.652617,205.845066 L806.032193,205.845066 L762.798281,96.4161638 L801.27227,2.46626012 Z M0.341248555,97.1467996 L48.7543507,97.1467996 L48.7543507,118.267416 L0.332,118.267416 L0.341248555,137.769536 L105.817934,137.769536 L105.817934,118.258168 L68.2749672,118.267416 L68.2749672,97.1467996 L105.817934,97.1467996 L105.817934,77.6354316 L0.341248555,77.6354316 L0.341248555,97.1467996 Z M0.332,205.832734 L19.8526166,205.832734 L19.8526166,172.470114 L48.748185,172.470114 L48.7543507,201.495162 L68.2657187,201.495162 L68.2657187,172.470114 L86.3004008,172.470114 L86.3004008,205.832734 L105.817934,205.832734 L105.817934,152.943331 L0.332,152.943331 L0.332,205.832734 Z M118.312732,38.665104 L0.341248555,38.665104 L0.341248555,62.3074933 L118.312732,62.3074933 L118.303484,205.832734 L142.713503,205.832734 L142.713503,2.46626012 L118.312732,2.46626012 L118.312732,38.665104 Z"/><path id="Stroke-2" d="M251.513503,70.8654894 C251.513503,75.8751233 246.898474,78.853158 239.656855,78.853158 L223.992886,78.853158 L224.002135,35.0550848 L239.770921,35.0550848 C249.019476,35.0550848 251.522751,38.5880328 251.522751,43.7888035 L251.513503,70.8654894 Z M223.992886,112.036973 L239.083445,112.036973 C243.239129,112.036973 256.643368,112.03389 256.643368,127.448148 C256.643368,127.448148 256.643368,144.24969 256.643368,160.551809 C256.643368,173.922137 240.301171,174.026954 238.568609,174.026954 C226.705796,174.026954 223.71543,174.026954 223.71543,174.026954 L223.992886,112.036973 Z M247.863407,206.005374 C277.147414,206.005374 293.563599,196.38996 293.563599,171.34179 L293.563599,131.55759 C293.563599,97.2608651 271.619861,93.6755087 269.508108,93.6755087 C280.20252,93.6755087 292.176316,85.0342755 291.79096,60.1679942 L291.79096,44.3036397 C291.79096,12.4485337 278.68884,2.46626012 244.281133,2.46626012 L186.684216,2.46626012 L186.684216,206.005374 L247.863407,206.005374 Z M415.484216,70.7884181 L415.484216,44.3036397 C415.484216,12.4485337 404.509264,2.46626012 375.80175,2.46626012 L308.60175,2.46626012 L308.60175,206.005374 L345.91042,206.005374 L345.91042,124.667416 L361.000979,124.676665 C371.285372,124.676665 375.897318,131.452773 375.897318,140.451617 L375.897318,206.005374 L420.043753,206.005374 C420.043753,206.005374 415.474967,201.399593 415.474967,191.189189 C415.474967,180.975701 415.474967,139.101328 415.474967,139.101328 C415.474967,106.346029 393.981326,106.278206 391.869572,106.278206 C402.921595,106.278206 415.484216,97.8681869 415.484216,70.7884181 Z M375.764755,80.2712697 C375.764755,89.2608651 370.662636,93.2377437 364.496933,93.2377437 L346.021403,93.2377437 L346.030651,35.030422 L364.23489,35.030422 C372.453773,35.030422 375.770921,39.9352389 375.770921,47.3864913 L375.764755,80.2712697 Z M626.56708,160.773775 C626.56708,166.514044 622.414466,172.907879 615.289996,172.907879 L606.013696,172.917127 C598.445295,172.907879 595.627568,167.2231 595.633724,160.767609 L595.633724,48.474738 C595.627568,42.4292659 598.809071,36.3221368 606.013696,36.3221368 L615.289996,36.3221368 C624.409071,36.3221368 626.573233,43.508264 626.56708,48.4809037 L626.56708,160.773775 Z M625.407915,0.931 L596.799052,0.931 C567.453387,0.931 555.491923,13.5922717 555.491923,44.4855279 L555.491923,164.439285 C555.491923,195.502098 567.453387,208.302098 597.680748,208.302098 L624.513888,208.311347 C655.826412,208.311347 666.708879,195.502098 666.708879,164.439285 L666.708879,44.4793622 C666.708879,13.336395 655.570536,0.931 625.851846,0.931 L625.407915,0.931 Z M1550.31273,2.46626012 L1508.31504,2.46626012 L1508.3058,205.848148 L1598.84298,205.848148 L1598.84298,167.719439 L1550.30348,167.719439 L1550.31273,2.46626012 Z M501.196769,160.773775 C501.196769,166.514044 497.044139,172.907879 489.919669,172.907879 L480.646451,172.917127 C473.074967,172.907879 470.257241,167.2231 470.263397,160.767609 L470.263397,48.474738 C470.257241,42.4292659 473.438744,36.3221368 480.646451,36.3221368 L489.919669,36.3221368 C499.041827,36.3221368 501.205988,43.508264 501.196769,48.4809037 L501.196769,160.773775 Z M500.040671,0.931 L471.431807,0.931 C442.08306,0.931 430.121595,13.5922717 430.121595,44.4855279 L430.121595,164.439285 C430.121595,195.502098 442.08306,208.302098 472.31042,208.302098 L499.143561,208.311347 C530.459168,208.311347 541.341634,195.502098 541.341634,164.439285 L541.341634,44.4793622 C541.341634,13.336395 530.200208,0.931 500.484601,0.931 L500.040671,0.931 Z"/></g></svg>