<svg xmlns="http://www.w3.org/2000/svg" xmlns:xlink="http://www.w3.org/1999/xlink" width="1600" height="209" version="1.1" viewBox="0 0 1600 209"><title>brooklyn-rail-logo-2019-outline-red</title><desc>Created with Sketch.</desc><g id="brooklyn-rail-logo-2019-outline-red" fill="none" fill-rule="evenodd" stroke="none" stroke-dasharray="0 4.5" stroke-linecap="round" stroke-linejoin="bevel" stroke-width="1"><g id="Group" stroke="#E52207" stroke-width="2.5" transform="translate(0.332000, 0.931000)"><path id="Stroke-1" d="M1358.98574,110.492486 L1369.80963,38.0177264 L1372.42081,38.0177264 L1383.08131,110.48632 L1358.98574,110.492486 Z M1342.13487,1.53526012 L1308.10328,204.910983 L1345.75106,204.910983 L1353.39961,149.219268 L1387.44355,149.219268 L1396.66435,204.910983 L1435.00578,204.910983 L1398.45857,1.53526012 L1342.13487,1.53526012 Z M1296.84778,69.8574181 L1296.84778,43.3726397 C1296.84778,11.5175337 1285.87283,1.53526012 1257.16532,1.53526012 L1189.96532,1.53526012 L1189.96532,205.074374 L1227.27399,205.074374 L1227.27399,123.736416 L1242.36455,123.745665 C1252.64894,123.745665 1257.26089,130.521773 1257.26089,139.520617 L1257.26089,205.074374 L1301.40732,205.074374 C1301.40732,205.074374 1296.83854,200.468593 1296.83854,190.258189 C1296.83854,180.044701 1296.83854,138.170328 1296.83854,138.170328 C1296.83854,105.415029 1275.34489,105.347206 1273.23314,105.347206 C1284.28516,105.347206 1296.84778,96.9371869 1296.84778,69.8574181 Z M1257.12832,79.3402697 C1257.12832,88.3298651 1252.0262,92.3067437 1245.8605,92.3067437 L1227.38497,92.3067437 L1227.39422,34.099422 L1245.59846,34.099422 C1253.81734,34.099422 1257.13449,39.0042389 1257.13449,46.4554913 L1257.12832,79.3402697 Z M1445.84817,1.53526012 L1445.90674,204.917148 L1486.10713,204.917148 L1486.04239,1.53526012 L1445.84817,1.53526012 Z M1099.33565,132.007707 L1097.68324,132.007707 L1061.24085,1.53526012 L1016.28979,1.53526012 L1016.28979,204.914066 L1051.05202,204.914066 L1051.05202,76.1433526 L1052.71985,76.1433526 L1090.08401,204.914066 L1134.73295,204.914066 L1134.73295,1.53526012 L1099.34489,1.53526012 L1099.33565,132.007707 Z M942.501734,82.1919075 L920.699807,1.53526012 L877.126782,1.53526012 L920.709056,124.824663 L920.699807,204.914066 L964.288247,204.914066 L964.297495,124.833911 L1007.88902,1.53526012 L964.297495,1.53526012 L942.501734,82.1919075 Z M854.868593,1.53526012 L812.873988,1.53526012 L812.86474,204.914066 L903.398844,204.914066 L903.398844,166.788439 L854.868593,166.788439 L854.868593,1.53526012 Z M800.94027,1.53526012 L756.750674,1.53526012 L723.90289,84.7537572 L723.739499,84.7568401 C723.739499,85.4813102 723.739499,1.53526012 723.739499,1.53526012 L683.406551,1.53526012 L683.406551,204.914066 L723.748748,204.914066 L723.754913,107.107514 L723.964547,107.107514 L760.320617,204.914066 L805.700193,204.914066 L762.466281,95.4851638 L800.94027,1.53526012 Z M0.00924855491,96.2157996 L48.4223507,96.2157996 L48.4223507,117.336416 L0,117.336416 L0.00924855491,136.838536 L105.485934,136.838536 L105.485934,117.327168 L67.9429672,117.336416 L67.9429672,96.2157996 L105.485934,96.2157996 L105.485934,76.7044316 L0.00924855491,76.7044316 L0.00924855491,96.2157996 Z M0,204.901734 L19.5206166,204.901734 L19.5206166,171.539114 L48.416185,171.539114 L48.4223507,200.564162 L67.9337187,200.564162 L67.9337187,171.539114 L85.9684008,171.539114 L85.9684008,204.901734 L105.485934,204.901734 L105.485934,152.012331 L0,152.012331 L0,204.901734 Z M117.980732,37.734104 L0.00924855491,37.734104 L0.00924855491,61.3764933 L117.980732,61.3764933 L117.971484,204.901734 L142.381503,204.901734 L142.381503,1.53526012 L117.980732,1.53526012 L117.980732,37.734104 Z"/><path id="Stroke-2" d="M251.181503,69.9344894 C251.181503,74.9441233 246.566474,77.922158 239.324855,77.922158 L223.660886,77.922158 L223.670135,34.1240848 L239.438921,34.1240848 C248.687476,34.1240848 251.190751,37.6570328 251.190751,42.8578035 L251.181503,69.9344894 Z M223.660886,111.105973 L238.751445,111.105973 C242.907129,111.105973 256.311368,111.10289 256.311368,126.517148 C256.311368,126.517148 256.311368,143.31869 256.311368,159.620809 C256.311368,172.991137 239.969171,173.095954 238.236609,173.095954 C226.373796,173.095954 223.38343,173.095954 223.38343,173.095954 L223.660886,111.105973 Z M247.531407,205.074374 C276.815414,205.074374 293.231599,195.45896 293.231599,170.41079 L293.231599,130.62659 C293.231599,96.3298651 271.287861,92.7445087 269.176108,92.7445087 C279.87052,92.7445087 291.844316,84.1032755 291.45896,59.2369942 L291.45896,43.3726397 C291.45896,11.5175337 278.35684,1.53526012 243.949133,1.53526012 L186.352216,1.53526012 L186.352216,205.074374 L247.531407,205.074374 Z M415.152216,69.8574181 L415.152216,43.3726397 C415.152216,11.5175337 404.177264,1.53526012 375.46975,1.53526012 L308.26975,1.53526012 L308.26975,205.074374 L345.57842,205.074374 L345.57842,123.736416 L360.668979,123.745665 C370.953372,123.745665 375.565318,130.521773 375.565318,139.520617 L375.565318,205.074374 L419.711753,205.074374 C419.711753,205.074374 415.142967,200.468593 415.142967,190.258189 C415.142967,180.044701 415.142967,138.170328 415.142967,138.170328 C415.142967,105.415029 393.649326,105.347206 391.537572,105.347206 C402.589595,105.347206 415.152216,96.9371869 415.152216,69.8574181 Z M375.432755,79.3402697 C375.432755,88.3298651 370.330636,92.3067437 364.164933,92.3067437 L345.689403,92.3067437 L345.698651,34.099422 L363.90289,34.099422 C372.121773,34.099422 375.438921,39.0042389 375.438921,46.4554913 L375.432755,79.3402697 Z M626.235067,159.842775 C626.235067,165.583044 622.082466,171.976879 614.957996,171.976879 L605.681696,171.986127 C598.113295,171.976879 595.295568,166.2921 595.301734,159.836609 L595.301734,47.543738 C595.295568,41.4982659 598.477071,35.3911368 605.681696,35.3911368 L614.957996,35.3911368 C624.077071,35.3911368 626.241233,42.577264 626.235067,47.5499037 L626.235067,159.842775 Z M625.075915,0 L596.467052,0 C567.121387,0 555.159923,12.6612717 555.159923,43.5545279 L555.159923,163.508285 C555.159923,194.571098 567.121387,207.371098 597.348748,207.371098 L624.181888,207.380347 C655.494412,207.380347 666.376879,194.571098 666.376879,163.508285 L666.376879,43.5483622 C666.376879,12.405395 655.238536,0 625.519846,0 L625.075915,0 Z M1549.98073,1.53526012 L1507.98304,1.53526012 L1507.9738,204.917148 L1598.51098,204.917148 L1598.51098,166.788439 L1549.97148,166.788439 L1549.98073,1.53526012 Z M500.86474,159.842775 C500.86474,165.583044 496.712139,171.976879 489.587669,171.976879 L480.314451,171.986127 C472.742967,171.976879 469.925241,166.2921 469.931407,159.836609 L469.931407,47.543738 C469.925241,41.4982659 473.106744,35.3911368 480.314451,35.3911368 L489.587669,35.3911368 C498.709827,35.3911368 500.873988,42.577264 500.86474,47.5499037 L500.86474,159.842775 Z M499.708671,0 L471.099807,0 C441.75106,0 429.789595,12.6612717 429.789595,43.5545279 L429.789595,163.508285 C429.789595,194.571098 441.75106,207.371098 471.97842,207.371098 L498.811561,207.380347 C530.127168,207.380347 541.009634,194.571098 541.009634,163.508285 L541.009634,43.5483622 C541.009634,12.405395 529.868208,0 500.152601,0 L499.708671,0 Z"/></g></g></svg>