<?xml version="1.0" encoding="UTF-8"?>
<svg width="242px" height="19px" viewBox="0 0 242 19" version="1.1" xmlns="http://www.w3.org/2000/svg" xmlns:xlink="http://www.w3.org/1999/xlink">
    <title>Group 2</title>
    <g id="Page-1" stroke="none" stroke-width="1" fill="none" fill-rule="evenodd">
        <g id="Group-2" transform="translate(1.000000, 1.000000)">
            <path d="M0,9 C10,-1.66666667 20,-1.66666667 30,9 C40,19.6666667 50,19.6666667 60,9 C70,-1.66666667 80,-1.66666667 90,9 C100,19.6666667 110,19.6666667 120,9 C130,-1.66666667 140,-1.66666667 150,9 C160,19.6666667 170,19.6666667 180,9 C190,-1.66666667 200,-1.66666667 210,9 C220,19.6666667 230,19.6666667 240,9" id="Path-3" stroke="#7700FF"></path>
            <path d="M0,8.5 C8.33333333,-2.83333333 16.6666667,-2.83333333 25,8.5 C33.3333333,19.8333333 41.6666667,19.8333333 50,8.5 C58.3333333,-2.83333333 66.6666667,-2.83333333 75,8.5 C83.3333333,19.8333333 91.6666667,19.8333333 100,8.5 C108.333333,-2.83333333 116.666667,-2.83333333 125,8.5 C133.333333,19.8333333 141.666667,19.8333333 150,8.5 C158.333333,-2.83333333 166.666667,-2.83333333 175,8.5 C183.333333,19.8333333 191.666667,19.8333333 200,8.5" id="Path-4" stroke="#BB7FFF"></path>
        </g>
    </g>
</svg>